<svg id="Ebene_1" data-name="Ebene 1" xmlns="http://www.w3.org/2000/svg" xmlns:xlink="http://www.w3.org/1999/xlink" viewBox="0 0 150 150"><defs><style>.cls-1{fill:#65c8f3;}.cls-2{fill:url(#Unbenannter_Verlauf_10);}.cls-3{fill:#fff;}.cls-4{fill:none;stroke:#244462;stroke-miterlimit:10;stroke-width:6px;}</style><linearGradient id="Unbenannter_Verlauf_10" x1="39.99" y1="102.48" x2="110.38" y2="102.48" gradientUnits="userSpaceOnUse"><stop offset="0" stop-color="#0377c0"/><stop offset="1" stop-color="#65c8f3"/></linearGradient></defs><title>Icons</title><rect class="cls-1" x="60.79" y="18.6" width="29.7" height="6.32"/><path class="cls-2" d="M48.34,128.12c-7.5-.27-10.34-5.54-6.9-12.07,2.78-5.27,5.65-10.51,8.49-15.75,3.79-7,7.55-14.06,11.4-21,1.57-2.85,3.27-3.31,6.2-1.84,2,1,4,2.18,6,3.22A17.73,17.73,0,0,0,87.63,82c1.8-.59,2.55,0,3.34,1.47,2.49,4.67,5.13,9.27,7.7,13.89,3.56,6.39,7.2,12.73,10.64,19.17,2.87,5.39-.28,10.91-6.47,11.58a38.65,38.65,0,0,1-4.1.22C90.77,128.35,57.15,128.44,48.34,128.12Z"/><path class="cls-1" d="M82.21,45.23q0,7.42,0,14.83c0,1.34-.07,2.83-1.84,2.84s-1.89-1.48-1.89-2.81q0-14.95,0-29.9c0-1.33.09-2.83,1.87-2.84s1.86,1.48,1.86,2.82Q82.22,37.7,82.21,45.23Z"/><circle class="cls-3" cx="86.12" cy="103.37" r="4.37"/><circle class="cls-3" cx="78.46" cy="114.91" r="3.09"/><circle class="cls-3" cx="78.46" cy="95.72" r="7.65"/><path class="cls-4" d="M119.65,120.21,89.59,63.55a.25.25,0,0,1,0-.12V25.21A.24.24,0,0,1,89.7,25a3.61,3.61,0,0,0,2-3.23v-.25a3.87,3.87,0,0,0-3.86-3.86H63.29a3.87,3.87,0,0,0-3.86,3.86v.25a3.6,3.6,0,0,0,1.63,3,.24.24,0,0,1,.11.2V62.76a.25.25,0,0,1,0,.12L30.74,120.21A10,10,0,0,0,39.61,135h71.17A10,10,0,0,0,119.65,120.21Z"/></svg>