<svg id="Ebene_1" data-name="Ebene 1" xmlns="http://www.w3.org/2000/svg" xmlns:xlink="http://www.w3.org/1999/xlink" viewBox="0 0 150 150"><defs><style>.cls-1{fill:url(#Unbenannter_Verlauf_10);}.cls-2{fill:url(#Unbenannter_Verlauf_13);}.cls-3{fill:url(#Unbenannter_Verlauf_10-2);}.cls-4{fill:url(#Unbenannter_Verlauf_10-3);}</style><linearGradient id="Unbenannter_Verlauf_10" x1="29.29" y1="76.31" x2="120.71" y2="76.31" gradientUnits="userSpaceOnUse"><stop offset="0" stop-color="#0377c0"/><stop offset="1" stop-color="#65c8f3"/></linearGradient><linearGradient id="Unbenannter_Verlauf_13" x1="56.31" y1="106.01" x2="91.02" y2="106.01" gradientUnits="userSpaceOnUse"><stop offset="0" stop-color="#65c8f3"/><stop offset="1" stop-color="#0377c0"/></linearGradient><linearGradient id="Unbenannter_Verlauf_10-2" x1="63.72" y1="122.06" x2="69.96" y2="122.06" xlink:href="#Unbenannter_Verlauf_10"/><linearGradient id="Unbenannter_Verlauf_10-3" x1="90.51" y1="121.36" x2="101.95" y2="121.36" xlink:href="#Unbenannter_Verlauf_10"/></defs><title>Icons</title><path class="cls-1" d="M114.49,79.9c-4.19-9.18-12.77-23-12.77-23,.84,6.39.35,16.79.35,16.79-4.19-37.91-39.27-66-39.27-66,1.4,13-2.79,33.72-13.37,49.69C42.21,68.27,36.7,73.73,33.14,83.93c.57,2.21.16,7.61,1.35,8.67,1.55,1.37-.9-.66-3.35-3a46.29,46.29,0,0,0-1.85,13.09c0,34.12,35.52,41.31,35.52,41.31C46,136.37,44.49,117.6,45.05,110.43c.79-10.21,9.58-20.15,15.34-27.85,6.12-8.18,11.8-23,11.8-23,17,17.56,20.75,42.3,20.75,42.3,1.2-2.2,2.2-11.37,2.2-11.37,7.38,8.18,12.4,21.77,9.38,32.53-3.92,14-24.88,22-24.88,22,11-.67,20.09-2.59,26.27-7S117.83,123.8,120,113C122.28,101.85,118.68,89.08,114.49,79.9Z"/><path class="cls-2" d="M88.66,109.06c-1.59-3.48-4.85-8.75-4.85-8.75-1.32-2-10.76-22.06-10.76-22.06C71,87.16,68,94.44,64,100.5l-.3.44A48.81,48.81,0,0,0,63,106c0,1,.1,2.53.09,2.76a32.74,32.74,0,0,1-1.92-4.36,23.19,23.19,0,0,0-3.45,6.19c-.3.72-.34,1-.76,2.14a17.57,17.57,0,0,0-.7,5c0,13,13.48,15.68,13.48,15.68-6.3-4.58-7.72-8.32-7.69-11.88A7.29,7.29,0,0,1,62.4,119a9.55,9.55,0,0,1,1.7-3.28,63.85,63.85,0,0,1,4-5.59,45.3,45.3,0,0,0,4.48-8.75c5.69,5,15.9,14.48,12.27,24.09-1.94,5.15-9.44,8.33-9.44,8.33,4.17-.25,7.63-1,10-2.65s4.53-5.38,5.35-9.47C91.62,117.4,90.25,112.55,88.66,109.06Z"/><path class="cls-3" d="M68.9,113.3C67,117.53,66.2,126.59,70,130.82c0,0-5-4.17-6-7.91a5.44,5.44,0,0,1,.41-3.93A32.14,32.14,0,0,1,68.9,113.3Z"/><path class="cls-4" d="M97.16,106.49c1.35,7.7-.29,23.38-6.65,29.73,0,0,8-6,10.56-12.11a11.69,11.69,0,0,0,.61-6.82A55.13,55.13,0,0,0,97.16,106.49Z"/></svg>