<svg id="Ebene_1" data-name="Ebene 1" xmlns="http://www.w3.org/2000/svg" xmlns:xlink="http://www.w3.org/1999/xlink" viewBox="0 0 150 150"><defs><style>.cls-1{fill:#244462;}.cls-2{fill:url(#Unbenannter_Verlauf_10);}.cls-3{fill:url(#Unbenannter_Verlauf_10-2);}.cls-4{fill:url(#Unbenannter_Verlauf_10-3);}.cls-5{fill:url(#Unbenannter_Verlauf_10-4);}.cls-6{fill:#fff;}</style><linearGradient id="Unbenannter_Verlauf_10" x1="81.31" y1="53.56" x2="87.98" y2="53.56" gradientUnits="userSpaceOnUse"><stop offset="0" stop-color="#0377c0"/><stop offset="1" stop-color="#65c8f3"/></linearGradient><linearGradient id="Unbenannter_Verlauf_10-2" x1="58.57" y1="53.56" x2="65.25" y2="53.56" xlink:href="#Unbenannter_Verlauf_10"/><linearGradient id="Unbenannter_Verlauf_10-3" x1="49.73" y1="75.37" x2="97.82" y2="75.37" xlink:href="#Unbenannter_Verlauf_10"/><linearGradient id="Unbenannter_Verlauf_10-4" x1="52.97" y1="97" x2="94.48" y2="97" xlink:href="#Unbenannter_Verlauf_10"/></defs><title>Icons</title><path class="cls-1" d="M141.55,75.91a66.6,66.6,0,1,0-97.16,61.66l.11.08a3.29,3.29,0,0,0,3.94-5.23,11.11,11.11,0,0,0-1.18-.69,60.11,60.11,0,1,1,75.54-16.86c-12.64,14.11-24,18.79-35.56,14.71-6.66-3-9.39-11.13-10.16-19.7-.12-1.33-.24-2.64-.38-3.91l-6.46.72c.14,1.23.25,2.49.37,3.77.83,9.15,3.86,20.54,14.1,25.1l.23.09a30.29,30.29,0,0,0,3.71,1.19,3,3,0,0,0,.35.07,41.84,41.84,0,0,0,19.67-3,46.81,46.81,0,0,0,19.13-14.88l.18-.2h0A66.28,66.28,0,0,0,141.55,75.91Z"/><path class="cls-2" d="M85,39.68h-.63a3,3,0,0,0-3,3V64.41a3,3,0,0,0,3,3H85a3,3,0,0,0,3-3V42.71A3,3,0,0,0,85,39.68Zm.68,8.39a1,1,0,0,1-2,0V42.87a1,1,0,0,1,2,0Z"/><path class="cls-3" d="M62.23,39.68h-.63a3,3,0,0,0-3,3V64.41a3,3,0,0,0,3,3h.63a3,3,0,0,0,3-3V42.71A3,3,0,0,0,62.23,39.68Zm.68,8.39a1,1,0,0,1-2,0V42.87a1,1,0,0,1,2,0Z"/><path class="cls-4" d="M96.2,69.51H51.35a1.63,1.63,0,0,0-1.62,1.63v8.48a1.63,1.63,0,0,0,1.63,1.63H96.2a1.63,1.63,0,0,0,1.63-1.62V71.13A1.63,1.63,0,0,0,96.2,69.51Z"/><rect class="cls-1" x="68.53" y="110" width="10.96" height="4.79"/><path class="cls-5" d="M53,83.14v8c0,10.88,9.29,19.7,20.76,19.7S94.48,102,94.48,91.16v-8Z"/><path class="cls-6" d="M77.08,104.4v-.84a1.07,1.07,0,0,1,.94-1.06c2.6-.33,5-2.06,7.8-5.6,1.63-2.05,2.11-6.62,2.19-9.13a1.07,1.07,0,0,1,1.06-1h.84A1.08,1.08,0,0,1,91,87.82c-.07,2.44-.5,8-2.84,10.94s-5.48,6.2-9.88,6.72A1.09,1.09,0,0,1,77.08,104.4Z"/></svg>