<svg id="Ebene_1" data-name="Ebene 1" xmlns="http://www.w3.org/2000/svg" xmlns:xlink="http://www.w3.org/1999/xlink" viewBox="0 0 150 150"><defs><style>.cls-1,.cls-4{fill:none;}.cls-1{stroke:#244462;stroke-miterlimit:10;stroke-width:7px;}.cls-2{fill:url(#Unbenannter_Verlauf_19);}.cls-3{fill:url(#Unbenannter_Verlauf_19-2);}.cls-5{fill:#65c8f3;}.cls-6{fill:url(#Unbenannter_Verlauf_19-3);}.cls-7{fill:#005e85;}</style><radialGradient id="Unbenannter_Verlauf_19" cx="97.77" cy="101.55" r="42.63" gradientUnits="userSpaceOnUse"><stop offset="0" stop-color="#65c8f3"/><stop offset="1" stop-color="#0377c0"/></radialGradient><radialGradient id="Unbenannter_Verlauf_19-2" cx="41.23" cy="53.13" r="33.15" xlink:href="#Unbenannter_Verlauf_19"/><radialGradient id="Unbenannter_Verlauf_19-3" cx="100.26" cy="28.63" r="18.99" xlink:href="#Unbenannter_Verlauf_19"/></defs><title>Icons</title><circle class="cls-1" cx="79.71" cy="72.63" r="59.14"/><path class="cls-2" d="M90.14,144l-9.78-2.76,1.64-11-8-6.17-9.73,4.42a36.51,36.51,0,0,1-6.65-11.25l8.77-6.44L64.86,100.5,55,96.76a37.4,37.4,0,0,1,3.41-12.62L69.2,85.7,75.14,78l-4.41-9.72A38.26,38.26,0,0,1,82,61.56l6.57,8.75L98.45,69l3.84-9.91c4.6.13,8.6,1.59,12.8,3.2l-1.67,10.8,7.72,5.72,9.73-4.38a33.65,33.65,0,0,1,6.89,11.25L129,92l1.42,10.09L140.54,106a39.32,39.32,0,0,1-3.38,12.6l-10.62-1.55-6,8,4.52,10.13-11.18,6.56-6.56-8.89-10.53,1.57L93.45,144Zm7.38-27.15A15.49,15.49,0,1,0,82,101.18,15.62,15.62,0,0,0,97.52,116.89Z"/><path class="cls-3" d="M8,48.08c2.06-.38,4.11-.79,6.18-1.14.8-.14,1.62-.17,2.42-.25l3-6.73-5.39-6.81,7-7.18L28,31.3c2-.8,4-1.6,5.92-2.32,1.33-.49,1.36-1.61,1.47-2.7.2-2,.37-4,.57-6.22H46.32c.2,2,.46,3.69.51,5.41.05,2,.56,3.5,2.86,4a24.86,24.86,0,0,1,4.25,1.81l6.76-5.54,7.34,7-5.41,6.82,3,7.08,8.16,1c1.08,3,.67,6,.48,9C74.15,57.91,73,58,72,58.11l-6.2.7-2.88,7,5.25,6.39a26.81,26.81,0,0,1-7.22,7.23l-6.35-5.09L47.1,77.5l-.91,7.89a18.15,18.15,0,0,1-10,.18L35,77.46l-7-3-6.74,5.32L14.14,72.9,19.56,66l-3-7.05L8,57.48Q8,52.78,8,48.08Zm33.08-7.21c-6.79,0-11.74,5-12,11.72-.3,6.93,6.26,12.17,11.75,12,6.8-.15,12.3-5.3,12.27-11.9A11.92,11.92,0,0,0,41.08,40.88Z"/><path class="cls-4" d="M95.54,83.8A15.49,15.49,0,1,1,79.91,99.07m29.25.08a13.78,13.78,0,0,0-13.42-13.7A14,14,0,0,0,81.81,99c-.12,7.59,6,13.68,13.87,13.8C102.84,112.89,109.1,106.55,109.16,99.15Z"/><path class="cls-5" d="M111.27,101.25c-.06,7.4-6.33,13.74-13.48,13.63-7.87-.12-14-6.21-13.87-13.8A14,14,0,0,1,97.84,87.55,13.78,13.78,0,0,1,111.27,101.25ZM97.48,91.42a10,10,0,0,0-9.85,9.9c0,5.19,4.88,10,10,9.87a10.2,10.2,0,0,0,10-10.15A10,10,0,0,0,97.48,91.42Z"/><path class="cls-5" d="M40.94,63.17A10.39,10.39,0,0,1,30.49,52.65,10.54,10.54,0,0,1,41,42.07,10.94,10.94,0,0,1,51.71,52.52,10.84,10.84,0,0,1,40.94,63.17Zm-.09-18a7.17,7.17,0,0,0-7.36,7.55,7.31,7.31,0,0,0,7.57,7.4A7.65,7.65,0,0,0,48.7,52.7,7.57,7.57,0,0,0,40.85,45.21Z"/><path class="cls-6" d="M82.63,36c.9-.79,1.79-1.59,2.7-2.36.35-.3.75-.56,1.11-.83l-.5-4.18-4.64-1.77,1.36-5.58,4.9.64c.76-1,1.47-1.94,2.23-2.87.51-.63.2-1.19-.07-1.76-.48-1-1-2.06-1.53-3.22l5.08-3c.67.92,1.3,1.68,1.83,2.51.62,1,1.3,1.55,2.58,1.13a14.21,14.21,0,0,1,2.62-.35L102,9.6l5.64,1.29L107,15.82l3.52,2.61,4.29-1.91a12.31,12.31,0,0,1,2.86,4.28c.34.68-.2,1.05-.67,1.41l-2.84,2.15.64,4.29,4.44,1.6a15.32,15.32,0,0,1-1.44,5.66l-4.61-.64L110.42,39l1.86,4.14a10.37,10.37,0,0,1-4.87,3l-2.92-3.66-4.33.58L98.4,47.65l-5.51-1.3.64-5L90,38.8l-4.6,1.78ZM96.78,22.76A6.75,6.75,0,0,0,94.28,32a6.86,6.86,0,0,0,11.84-6.94A6.81,6.81,0,0,0,96.78,22.76Z"/><path class="cls-5" d="M103.21,33.76A5.94,5.94,0,0,1,95,31.64a6,6,0,0,1,2.06-8.25,6.25,6.25,0,0,1,8.33,2A6.19,6.19,0,0,1,103.21,33.76ZM97.93,25a4.1,4.1,0,0,0-1.41,5.86,4.17,4.17,0,0,0,5.88,1.43,4.37,4.37,0,0,0,1.57-5.9A4.32,4.32,0,0,0,97.93,25Z"/><circle class="cls-7" cx="97.59" cy="101.22" r="4.77"/><circle class="cls-7" cx="41.1" cy="52.62" r="3.53"/><circle class="cls-7" cx="100.26" cy="28.58" r="1.71"/></svg>